{"title":"ALIEN V PREDATOR IN H.264 BY WINKER","uid":5193584,"size":944372352,"categoryP":"video","categoryS":"movies","magnet":"?xt=urn:btih:d55f3c77b410f406eadeefcbe20d9b6be9b95e5d&amp;dn=ALIEN+V+PREDATOR+IN+H.264+BY+WINKER&amp;tr=udp%3A%2F%2Ftracker.openbittorrent.com%3A80&amp;tr=udp%3A%2F%2Fopen.demonii.com%3A1337&amp;tr=udp%3A%2F%2Ftracker.coppersurfer.tk%3A6969&amp;tr=udp%3A%2F%2Fexodus.desync.com%3A6969","seeders":0,"leechers":1,"uploader":"alanwatson","files":-1,"time":1259819099,"description":"Whoever wins...we lose.\n\nIt may be our planet, but it's their war! The deadliest creatures from the scariest sci-fi movies ever made face off for the first time on film beginning when the discovery of an ancient pyramid buried in Antarctica sends a team of scientists and adventurers to the frozen continent. There, they make an even more terrifying discovery: two unstoppable alien races engaged in the ultimate battle..\n\n\nComplete name                    : C:UserswinkerDesktopALIEN V PREDATOR IN H.264 BY WINKERavp.mp4\nFormat                           : MPEG-4\nFormat profile                   : Base Media / Version 2\nCodec ID                         : mp42\nFile size                        : 900 MiB\nDuration                         : 1h 36mn\nOverall bit rate                 : 1 301 Kbps\nEncoded date                     : UTC 2009-11-30 14:14:15\nTagged date                      : UTC 2009-11-30 18:40:42\nWriting application              : HandBrake 0.9.3 2008112300\n\nVideo\nID                               : 1\nFormat                           : AVC\nFormat/Info                      : Advanced Video Codec\nFormat profile                   : &lt;a class=&quot;__cf_email__&quot; href=&quot;/cdn-cgi/l/email-protection&quot; data-cfemail=&quot;88c5e9e1e6c8c4bca6b8&quot;&gt;[email&amp;#160;protected]&lt;/a&gt;&lt;script cf-hash='f9e31' type=&quot;text/javascript&quot;&gt;\n/* &lt;![CDATA[ */!function(){try{var t=&quot;currentScript&quot;in document?document.currentScript:function(){for(var t=document.getElementsByTagName(&quot;script&quot;),e=t.length;e--;)if(t[e].getAttribute(&quot;cf-hash&quot;))return t[e]}();if(t&amp;&amp;t.previousSibling){var e,r,n,i,c=t.previousSibling,a=c.getAttribute(&quot;data-cfemail&quot;);if(a){for(e=&quot;&quot;,r=parseInt(a.substr(0,2),16),n=2;a.length-n;n+=2)i=parseInt(a.substr(n,2),16)^r,e+=String.fromCharCode(i);e=document.createTextNode(e),c.parentNode.replaceChild(e,c)}}}catch(u){}}();/* ]]&gt; */&lt;/script&gt;\nFormat settings, CABAC           : Yes\nFormat settings, ReFrames        : 3 frames\nCodec ID                         : avc1\nCodec ID/Info                    : Advanced Video Coding\nDuration                         : 1h 36mn\nBit rate mode                    : Variable\nBit rate                         : 1 138 Kbps\nWidth                            : 720 pixels\nHeight                           : 436 pixels\nDisplay aspect ratio             : 2.35:1\nFrame rate mode                  : Variable\nFrame rate                       : 25.000 fps\nMinimum frame rate               : 12.500 fps\nMaximum frame rate               : 89.054 fps\nResolution                       : 24 bits\nColorimetry                      : 4:2:0\nScan type                        : Progressive\nBits/(Pixel*Frame)               : 0.145\nStream size                      : 787 MiB (87%)\nWriting library                  : x264 core 65\n\n\nAudio\nID                               : 2\nFormat                           : AAC\nFormat/Info                      : Advanced Audio Codec\nFormat version                   : Version 4\nFormat profile                   : LC\nFormat settings, SBR             : No\nCodec ID                         : 40\nDuration                         : 1h 36mn\nBit rate mode                    : Variable\nBit rate                         : 160 Kbps\nMaximum bit rate                 : 237 Kbps\nChannel(s)                       : 2 channels\nChannel positions                : L R\nSampling rate                    : 48.0 KHz\nResolution                       : 16 bits\nStream size                      : 111 MiB (12%)\nLanguage                         : English\nEncoded date                     : UTC 2009-11-30 14:14:16\nTagged date                      : UTC 2009-11-30 18:40:39\n\n","torrent":{"xt":"urn:btih:d55f3c77b410f406eadeefcbe20d9b6be9b95e5d","amp;dn":"ALIEN+V+PREDATOR+IN+H.264+BY+WINKER","amp;tr":["udp%3A%2F%2Ftracker.openbittorrent.com%3A80","udp%3A%2F%2Fopen.demonii.com%3A1337","udp%3A%2F%2Ftracker.coppersurfer.tk%3A6969","udp%3A%2F%2Fexodus.desync.com%3A6969"],"infoHash":"d55f3c77b410f406eadeefcbe20d9b6be9b95e5d","infoHashBuffer":{"type":"Buffer","data":[213,95,60,119,180,16,244,6,234,222,239,203,226,13,155,107,233,185,94,93]},"announce":[],"urlList":[]}}